<?xml version="1.0" standalone="no"?>
<!DOCTYPE svg PUBLIC "-//W3C//DTD SVG 1.1//EN" "http://www.w3.org/Graphics/SVG/1.1/DTD/svg11.dtd" >
<!--
2013-9-30: Created.
-->
<svg>
<metadata>
Created by iconfont
</metadata>
<defs>

<font id="iconfont" horiz-adv-x="1024" >
  <font-face
    font-family="iconfont"
    font-weight="500"
    font-stretch="normal"
    units-per-em="1024"
    ascent="896"
    descent="-128"
  />
    <missing-glyph />
    
    <glyph glyph-name="guanwangicon62" unicode="&#58931;" d="M512 812c-48.64-6.4-156.16-336-156.16-336S6.4 456.8 6.4 422.24c0-34.56 252.8-261.76 252.8-261.76s-83.84-344.96-59.52-369.28c24.32-24.32 308.48 171.52 312.32 174.08L512 812z"  horiz-adv-x="1024" />

    
    <glyph glyph-name="30" unicode="&#58892;" d="M505.862 826.912c-246.973 0-447.185-200.211-447.185-447.185s200.212-447.185 447.185-447.185 447.185 200.211 447.185 447.185-200.212 447.185-447.185 447.185zM771.418 114.171c-34.513-34.513-74.684-61.602-119.396-80.514-34.758-14.702-71.165-23.956-108.641-27.649v95.946c0 19.699-16.117 35.816-35.816 35.816v0c-19.699 0-35.816-16.117-35.816-35.816v-96.262c-38.678 3.458-76.238 12.818-112.048 27.965-44.712 18.911-84.882 46.001-119.396 80.514-34.513 34.514-61.602 74.684-80.514 119.396-14.924 35.283-24.229 72.268-27.806 110.345h96.421c19.699 0 35.816 16.117 35.816 35.816v0c0 19.699-16.117 35.816-35.816 35.816h-96.421c3.577 38.076 12.882 75.062 27.806 110.344 18.912 44.712 46.001 84.882 80.514 119.396s74.684 61.602 119.396 80.514c35.81 15.147 73.37 24.507 112.048 27.965v-96.897c0-19.699 16.117-35.816 35.816-35.816v0c19.699 0 35.816 16.117 35.816 35.816v96.581c37.477-3.692 73.884-12.946 108.641-27.649 44.712-18.911 84.882-46 119.396-80.514 34.513-34.514 61.602-74.683 80.514-119.396 14.924-35.283 24.229-72.268 27.806-110.344h-96.421c-19.699 0-35.816-16.117-35.816-35.816v0c0-19.699 16.117-35.816 35.816-35.816h96.421c-3.577-38.077-12.882-75.062-27.806-110.345-18.912-44.712-46.001-84.883-80.514-119.396zM439.347 379.728c0 0 0 0 0 0 0-36.735 29.78-66.515 66.515-66.515 36.735 0 66.515 29.78 66.515 66.515 0 0 0 0 0 0 0 0 0 0 0 0 0 36.735-29.78 66.515-66.515 66.515-36.735 0-66.515-29.78-66.515-66.515s0 0 0 0z"  horiz-adv-x="1024" />

    
    <glyph glyph-name="dizhiguanli" unicode="&#58942;" d="M608.840582 81.979362c-44.740994-41.472554-82.516342-67.689658-97.195669-67.689658-14.314007 0-51.981908 26.242687-96.739275 67.750033-199.366653-6.558369-348.538091-33.101909-348.538091-64.849984 0-36.673248 199.057615-66.403363 444.608124-66.403363 245.551532 0 444.609147 29.730115 444.609147 66.403363C955.583794 48.841637 807.307749 75.320709 608.840582 81.979362zM511.643889 60.571796c46.289256 0 322.183863 260.614599 322.183863 438.551174S689.582511 821.307857 511.643889 821.307857 189.460026 677.060569 189.460026 499.123994 466.530412 60.571796 511.643889 60.571796zM511.699148 675.026236c82.182744 0 148.805094-66.621327 148.805094-148.805094S593.881892 377.416048 511.699148 377.416048s-148.804071 66.621327-148.804071 148.805094S429.516404 675.026236 511.699148 675.026236z"  horiz-adv-x="1024" />

    
    <glyph glyph-name="xingxing1" unicode="&#58945;" d="M240.1536-38.540288c11.133952-7.635968 24.193024-11.515904 37.266432-11.515904 10.778624 0 21.543936 2.609152 31.296512 7.840768l203.25888 109.463552 203.298816-109.463552c9.781248-5.231616 20.559872-7.840768 31.296512-7.840768 13.060096 0 26.120192 3.879936 37.29408 11.515904 20.190208 13.947904 30.518272 37.854208 26.474496 61.70624l-39.616512 236.632064 170.909696 170.662912c16.925696 16.831488 22.718464 41.529344 15.012864 63.960064-7.732224 22.38976-27.6224 38.742016-51.56864 42.320896l-233.148416 34.684928L570.566656 781.815808c-10.628096 22.10304-33.46944 36.242432-58.591232 36.242432-25.039872 0-47.894528-14.139392-58.563584-36.242432l-101.336064-210.388992-233.160704-34.684928c-23.960576-3.57888-43.850752-19.931136-51.569664-42.320896-7.704576-22.43072-1.870848-47.128576 15.040512-63.960064l170.841088-170.662912-39.6288-236.632064C209.60768-0.68608 219.921408-24.592384 240.1536-38.540288zM118.477824 474.039296l232.410112 34.521088 40.887296 6.0928 17.949696 37.21216 102.264832 212.041728 102.250496-212.041728 17.964032-37.21216 40.887296-6.0928 232.410112-34.521088L736.012288 304.973824l-28.469248-28.40064 6.626304-39.629824 39.602176-236.193792L548.95616 110.908416l-37.008384 19.9168-37.006336-19.9168L270.12608 0.707584l39.602176 236.234752 6.626304 39.629824-28.470272 28.40064L118.477824 474.039296z"  horiz-adv-x="1024" />

    
    <glyph glyph-name="stacks" unicode="&#59017;" d="M972.8 312.32l-414.72-204.8c-40.96-20.48-56.32-20.48-92.16 0l-414.72 204.8c-20.48 15.36-25.6 61.44-25.6 87.04C51.2 384 87.04 363.52 87.04 363.52l424.96-215.04 424.96 215.04c0 0 40.96 20.48 66.56 35.84C1003.52 373.76 993.28 322.56 972.8 312.32M972.8 532.48l-414.72-204.8c-40.96-20.48-56.32-20.48-92.16 0L51.2 532.48c-30.72 20.48-30.72 76.8 0 102.4l414.72 240.64c35.84 20.48 61.44 20.48 92.16 0L972.8 629.76C1003.52 614.4 1003.52 547.84 972.8 532.48M512 834.56 87.04 578.56 512 384l424.96 194.56L512 834.56M512 834.56M512-66.56l424.96 215.04c0 0 40.96 20.48 66.56 35.84 0-25.6-5.12-76.8-25.6-87.04l-414.72-204.8c-40.96-20.48-56.32-20.48-92.16 0l-414.72 204.8c-20.48 15.36-25.6 61.44-25.6 87.04 25.6-15.36 66.56-35.84 66.56-35.84L512-66.56"  horiz-adv-x="1024" />

    
    <glyph glyph-name="iconfont-jishu" unicode="&#58937;" d="M675.606309 320.726626l-115.987393-113.467474 237.472323-241.823031c8.093737-7.390384 20.710141-7.390384 28.556929 0l88.273455 88.517818c7.846788 7.60501 7.846788 20.465778 0 28.312566L675.606309 320.726626zM921.769703 504.868202c-4.269253 1.418343-8.547556 1.418343-12.602181 0.457697l-53.532445-14.522182-43.777293-11.40105-31.405252 31.865535-32.138344 31.89398 11.675152 43.536808 11.638949 43.292444 43.535515 11.915637 53.319112 14.032161c10.939475 3.091394 17.126141 14.034747 14.735515 25.217293-1.418343 3.79604-3.797333 7.603717-7.363233 9.998222-22.154343 18.071273-48.775758 30.701899-77.817535 36.644202-27.124364 5.701818-56.623838 5.485899-85.180768-2.390626-49.494626-13.331394-89.235394-45.683071-112.550788-86.599111-23.557172-40.685899-31.648323-91.367434-18.787555-140.403071l0.457697-1.904484 0.488727-0.486142L175.559441 89.400889c-7.846788-7.849374-7.846788-20.707556 0-28.312566l88.27604-88.060121c7.875232-8.092444 20.708848-8.092444 28.34101 0L693.121623 374.005657c15.939232-6.18796 32.822303-10.484364 49.952323-11.918223 21.665616-2.147556 44.021657-0.457697 65.445495 5.487192 29.01204 7.60501 54.264242 22.36897 75.65705 40.684606 21.423838 19.277576 38.552566 43.536808 48.778344 70.202182 4.055919 10.697697-0.942545 22.125899-11.183839 26.410667l-0.001293-0.003879zM230.065461 364.23499l43.536808 43.535515c3.79604 3.582707 6.186667 9.279354 5.699232 15.967677-0.45899 5.699232 0.486141 10.45204 1.431273 14.734222 1.190788 3.09398 2.852202 5.700525 4.282182 8.577293 5.213091 2.121697 10.454626 4.269253 15.222949 7.147313v0.215919l5.700526 2.633697 103.497697-103.495111 116.887272 116.529131-103.753697 103.786021c3.337051 6.184081 6.43103 12.359111 9.523718 18.544485l0.457697 1.188202c4.768323 10.237414 8.089859 20.708848 10.481777 30.460121 7.144727 12.130263 15.937939 20.465778 26.652445 25.704727 11.883313 5.456162 27.366141 7.148606 46.39806 5.703111 5.942303-0.702061 12.131556 0.958061 16.885657 5.725091 7.632162 8.092444 7.632162 20.693333-0.700768 28.555636-29.517576 28.529778-63.299232 46.143354-98.272969 48.764122-32.10602 1.918707-64.257293-8.793212-94.705778-34.500526-6.661172-2.849616-13.789091-5.699232-20.463192-9.249616v-0.243071c-4.05204-1.674343-7.603717-3.79604-10.942061-5.730262l-10.69899 10.242586c-7.389091 7.633455-20.218828 7.633455-28.311272 0l-88.058829-88.749253c-7.846788-7.387798-7.846788-20.221414 0-28.096646l9.995637-9.995637-2.362182-4.266666-0.486141-0.974869c-2.363475-4.754101-4.997172-9.510788-7.147314-14.493737-1.904485-1.431273-4.282182-2.391919-7.131798-3.092687-5.241535-1.432566-11.642828-1.907071-19.033212-1.432566-5.699232 0.486141-11.425616-1.418343-15.694868-5.699232l-43.320889-43.076525c-8.093737-8.335515-7.846788-20.937697 0-28.55693l50.438464-50.438464 0.973576-0.946425 1.418344-1.188202 0.487434-0.945131 0.700768-0.457697 52.115394-52.357172c7.588202-7.417535 20.43604-7.417535 28.29705-0.028444z"  horiz-adv-x="1024" />

    
    <glyph glyph-name="shenfenxinxi" unicode="&#58910;" d="M398.222222 287.288889C398.222222 361.244444 494.933333 384 494.933333 526.222222c0 91.022222-34.133333 182.044444-159.288889 182.044445-119.466667-5.688889-159.288889-96.711111-159.288888-182.044445 0-136.533333 96.711111-164.977778 96.711111-233.244444s-159.288889-113.777778-159.288889-113.777778v-119.466667h443.733333v119.466667S398.222222 213.333333 398.222222 287.288889zM529.066667 548.977778h250.311111v-73.955556H529.066667zM534.755556 418.133333h210.488888v-73.955555H534.755556zM546.133333 281.6h159.288889v-73.955556H546.133333zM506.311111 708.266667v-79.644445h329.955556v-489.244444h-159.288889v-79.644445H910.222222V708.266667z"  horiz-adv-x="1024" />

    
    <glyph glyph-name="Stars" unicode="&#58883;" d="M537.92 805.696l120.064-230.336a58.432 58.432 0 0 1 43.776-30.784l266.496-36.544a29.312 29.312 0 0 0 15.872-50.496l-189.76-175.104a58.24 58.24 0 0 1-17.792-53.184l44.928-248.256a29.184 29.184 0 0 0-41.728-31.296l-241.792 120.32a59.136 59.136 0 0 1-51.904 0l-241.792-120.32a29.184 29.184 0 0 0-41.728 31.296l45.056 248.256a58.304 58.304 0 0 1-17.92 53.184L39.872 457.536a29.248 29.248 0 0 0 15.872 50.432l266.496 36.544a58.688 58.688 0 0 1 43.776 30.784l120.064 230.336a29.184 29.184 0 0 0 51.84 0.064z"  horiz-adv-x="1024" />

    
    <glyph glyph-name="xiangmujingli" unicode="&#58880;" d="M511.9 415.3c109.4 0 198.2 127.7 198.2 218.2S621.4 797.8 511.9 797.8s-198.2-73.4-198.2-164.2 88.8-218.3 198.2-218.3z m176.9-23.6l-93.4-312.2c-5-16.9-21-28.1-38.6-27h-13.3c0.1 0.5 0.2 1 0.2 1.5V299.3c-0.6 5.4-5.4 9.4-10.8 8.9H491c-5.4 0.4-10.2-3.5-10.8-8.9v-245.1c0-0.5 0.1-1 0.2-1.5h-11.5c-17.5-1.1-33.5 10-38.5 26.8l-95.2 312.4c-108.9-14.7-238-105.3-238-191.5v-179.6c3.2-32 31.5-55.5 63.5-52.8h702.8c32-2.7 60.2 20.7 63.5 52.6V200.3c-0.2 85.9-129.4 176.4-238.2 191.4z"  horiz-adv-x="1024" />

    
    <glyph glyph-name="banxinghui" unicode="&#58894;" d="M548.140747 896L685.175933 515.517236 1096.281493 504.919849l-326.399543-245.567055 116.936692-387.352794L548.140747 101.122832 209.31668-127.634573l116.936692 387.352794L0 504.919849 411.10556 515.517236zM548.140747 896V101.122832L209.31668-127.634573l116.936692 387.352794L0 504.919849 411.10556 515.517236z"  horiz-adv-x="1097" />

    
    <glyph glyph-name="banxing" unicode="&#59199;" d="M534.26087 896L356.173913 573.217391 0 506.434783l250.434783-267.130435-44.52174-361.739131 328.347827 155.826087V896M534.26087 896v-868.173913l328.347826-155.826087-44.521739 361.73913L1068.521739 506.434783l-356.173913 66.782608L534.26087 896"  horiz-adv-x="1074" />

    
    <glyph glyph-name="haogongchang" unicode="&#58939;" d="M944.201784 45.145112c-4.328703 33.307629-21.973263 64.501868-51.314913 88.953243-23.612014 19.675013-74.631152 53.312391-110.649716 74.408322l-58.323574-323.430637c20.668257-2.696946 36.868916-5.47383 44.207327-7.99591 28.595218 6.649935 116.192494 40.947809 156.127075 90.986694 10.015371 12.551439 17.042019 26.089127 19.376241 40.433201 1.984488 12.347595 2.13937 24.632237 0.57756 36.645087zM150.118652 132.434622c-39.924589-33.270657-58.22365-79.017811-50.738352-125.59733 10.813763-71.531513 139.737559-123.101231 175.504315-131.418896 7.393368 2.542064 23.778887 5.339932 44.64999 8.091836L261.216027 206.914889c-35.835703-21.091934-87.459381-54.780273-111.097375-74.480267zM320.63077 421.057772c10.813763-31.606924 53.232452-83.176643 70.701145-101.475704l1.663733-1.663732v-1.663733c4.157833-22.457893 4.157833-30.775558-0.832366-42.419688-4.12286-7.423345-20.53236-15.671063-62.176639-33.653366l52.917692-349.634677c43.235067 4.146841 87.887055 7.371385 111.567017 8.160784h14.971596c3.326466 0 7.485298-0.830367 11.64413-0.830367 4.990199 0 8.317664 0.830367 11.64513 0.830367h14.970597c24.165593 0 69.271235-2.830844 112.768102-6.783832l52.934679 349.74859c-42.759429 18.095217-59.252866 25.551537-62.561346 33.827233-5.823564 11.64413-4.990199 19.962794-0.831367 42.419688v1.663733l1.662733 1.663732c17.466695 18.299061 59.888382 69.86778 70.700147 101.475704 10.444045 30.532743 22.439907 91.326435 23.243295 121.669323H297.395468c1.154121-29.723359 12.593407-92.227748 23.235302-123.334055zM816.36416 611.531685c-13.307863 23.290259-34.101025 43.252054-37.42849 44.916786l-3.327465 1.662733v4.159832c0 19.130428-10.811764 85.670743-59.055017 133.915993C658.32754 853.576315 576.815629 895.997002 523.583177 895.997002h-3.327466c-53.233451 0-134.74736-41.589321-192.97101-99.811971-48.242253-48.244251-59.055017-114.785566-59.055017-133.915994v-5.821565l-3.327465-1.664732c-3.327465-1.662733-24.121626-21.624528-37.429489-44.913789-3.404407-5.88152-6.348164-13.491723-8.788306-21.415687h606.734839c-2.42915 8.515514-5.411878 16.786214-9.055103 23.078421z"  horiz-adv-x="1024" />

    
    <glyph glyph-name="banxing1" unicode="&#58891;" d="M444.974545 835.490909l-88.901818-192.465454a108.450909 108.450909 0 0 0-74.007272-56.785455l-204.8-29.556364a71.68 71.68 0 0 1-39.563637-121.018181l153.134546-158.021819a95.185455 95.185455 0 0 0 27.229091-84.014545l-37.236364-222.021818a69.818182 69.818182 0 0 1 29.556364-69.818182 64.698182 64.698182 0 0 1 41.890909-12.334546 56.785455 56.785455 0 0 1 34.443636 9.774546L465.454545-3.723636a104.727273 104.727273 0 0 0 43.52 10.938181V877.381818a73.541818 73.541818 0 0 1-64-41.890909zM985.6 435.665455a69.818182 69.818182 0 0 1 17.221818 71.68 72.843636 72.843636 0 0 1-56.785454 49.338181l-204.8 32.116364a93.090909 93.090909 0 0 0-74.007273 56.785455l-88.901818 192.465454a93.090909 93.090909 0 0 1-69.818182 39.563636v-870.4a104.494545 104.494545 0 0 0 50.269091-10.938181l177.803636-96.349091a80.290909 80.290909 0 0 1 34.443637-9.774546 83.316364 83.316364 0 0 1 41.890909 12.334546 69.818182 69.818182 0 0 1 29.556363 69.818182l-37.003636 222.254545a97.512727 97.512727 0 0 0 27.229091 84.014545z"  horiz-adv-x="1024" />

    
    <glyph glyph-name="banxing2" unicode="&#59009;" d="M518.942732-17.673592L272.410883-121.870755a68.102721 68.102721 0 0 0-85.809428 32.689306 63.33553 63.33553 0 0 0-2.724109 29.965197l25.879034 260.83342a64.016557 64.016557 0 0 1-16.344653 48.352932L16.344653 446.786963a63.33553 63.33553 0 0 0 5.448218 89.895591A68.102721 68.102721 0 0 0 51.077041 553.708234l260.83342 56.525259a60.611421 60.611421 0 0 1 41.54266 29.965197l136.205441 225.420005a68.102721 68.102721 0 0 0 88.533537 22.473898 61.292449 61.292449 0 0 0 23.154925-22.473898l136.205441-225.420005a60.611421 60.611421 0 0 1 41.54266-29.965197l259.471366-56.525259A63.33553 63.33553 0 0 0 1089.643531 475.390106a68.102721 68.102721 0 0 0-14.982598-28.603143l-177.067074-195.454809a64.016557 64.016557 0 0 1-16.344653-48.352931L905.766186-59.216252a64.016557 64.016557 0 0 0-57.887313-68.102721 68.102721 68.102721 0 0 0-32.689306 5.448218l-244.488767 104.197163a62.654503 62.654503 0 0 1-51.758068 0zM544.821766 894.221838v-907.12824a68.102721 68.102721 0 0 1-25.879034-4.76719L272.410883-122.551782a68.102721 68.102721 0 0 0-85.809428 32.689306A68.102721 68.102721 0 0 0 183.877346-59.216252l25.879034 260.152393a62.654503 62.654503 0 0 1-16.344653 48.352932L16.344653 446.105936a63.33553 63.33553 0 0 0 5.448218 89.895591 59.249367 59.249367 0 0 0 29.28417 14.301571l260.83342 56.525259a68.102721 68.102721 0 0 1 41.54266 29.965197l136.205441 225.420005A64.016557 64.016557 0 0 0 544.821766 894.221838z"  horiz-adv-x="1093" />

    
    <glyph glyph-name="banxing3" unicode="&#59004;" d="M959.9 499.4c4.3-15-15.5-77.4-27.4-93.1-11.9-15.7-91.4-92.8-126.8-127.5-12.1-11.9-16.9-22.5-13.1-40.9 12.4-61.2 21.7-123.1 32.5-184.6 6.2-35.3-6.4-63.6-33.3-85.2-27.2-21.8-57.7-22.4-88-6.6-57.8 30-114.8 61.4-173 90.6-9.5 4.8-25.4 5-34.8 0.3-55.1-27.5-109.4-56.8-163.6-86.2-33.1-17.9-66.1-23.3-97.5 1.5-30.7 24.3-40.1 56-32.2 95.2 12.2 60.4 22.1 121.3 31.1 182.2 1.4 9.6-4.6 23.3-11.8 30.8-41.5 43.3-84.1 85.5-126.8 127.6-25.3 24.9-40.7 53.9-28 88.9 12.9 35.5 41.5 53.9 79.2 59 56.8 7.7 113.3 17.1 170.2 24.2 18.9 2.3 29.3 11.1 37.3 27.4 26.6 54.6 54.5 108.6 81.1 163.2 16 32.9 42.5 46 77.8 46.1 35.3 0.1 62.1-12.5 78.2-45.5 26.3-53.8 53.7-107.1 79.8-161 8.6-17.9 19.7-28.1 40.8-30.6 46.2-5.4 127.8-9.4 172.8-24.4 19.4-6.6 67.1-36.8 75.5-51.4zM513.7 118.10000000000002c21.4-9 41-15.8 59.2-25.2 49.4-25.4 97.8-52.6 147.4-77.4 11-5.5 31.6-10 36.8-4.6 7.9 8.2 9.9 26.2 8 39.2-7.8 54.1-16.4 108.1-27.8 161.5-9.3 43.9 3.4 77.6 35.7 107.2 40.3 37 80 74.7 118 114.1 9.5 9.8 14.4 27.1 14.6 41.1 0.1 4.8-20 12.6-31.7 14.5-56.5 9.3-113.1 18-169.9 25-37.9 4.7-64.1 22.7-80.8 57-26.9 55.4-54.4 110.5-82.7 165.2-4.5 8.6-14.2 14.5-21.6 21.6-1.8-1.6-3.5-3.2-5.3-4.8 0.1-211.7 0.1-423.5 0.1-634.4z"  horiz-adv-x="1024" />

    
    <glyph glyph-name="banxing4" unicode="&#58882;" d="M1047.552 542.72l-290.304 41.984-129.536 263.168c-5.632 11.264-14.848 20.48-26.112 26.112-8.192 4.096-16.896 6.144-25.6 6.144v-72.192l130.048-263.168c5.632-11.264 16.384-18.944 28.672-20.992l290.816-42.496-188.416-183.808c-22.528-22.016-32.768-53.76-27.648-84.992l44.544-259.584-232.96 122.368c-13.824 7.168-29.184 11.264-44.544 11.264v-64c5.12 0 10.24-1.024 14.848-3.584l244.736-128.512c11.264-6.144 24.064-8.192 36.352-5.632 31.232 5.632 52.224 35.328 47.104 66.56l-46.592 272.384c-1.536 10.24 1.536 20.992 9.216 28.16L1080.32 444.928c9.216 8.704 14.848 20.48 16.896 33.28 3.584 30.72-18.432 59.904-49.664 64.512zM577.536 825.344l-1.536-3.072V879.616c-20.992 0-41.472-11.776-51.712-32.256L394.752 584.704 104.448 542.72c-12.8-2.048-24.064-7.68-33.28-16.896-22.016-23.04-21.504-59.392 1.024-81.408l209.92-204.8-49.664-288.768c-2.048-12.288 0-25.6 5.632-36.352 14.848-28.16 49.664-38.912 77.824-24.064l244.736 128.512c4.608 2.56 9.728 3.584 14.848 3.584v60.416h1.536v742.4z"  horiz-adv-x="1152" />

    
    <glyph glyph-name="banxing5" unicode="&#58884;" d="M769.363044-105.784022c-14.82259 0-29.127388 3.815909-43.723827 11.680017L524.820492 11.304719c-1.423419 0.856507-5.465478 2.840698-12.176321 2.840698-4.348028 0-9.979282-1.292436-13.624298-2.644223L300.828998-93.998605c-13.879102-8.033977-28.155247-11.780301-44.895513-11.780301-27.688619 0-54.497195 12.286838-73.556273 33.729196-18.377556 20.676925-26.177196 49.00818-21.394262 77.739548l38.674834 222.13317c1.211595 8.515954-2.033309 17.876136-8.751315 24.594141L30.506293 407.86964c-26.843368 25.671683-36.285414 63.488986-24.569582 98.636485 11.700483 35.092239 40.543392 59.576887 77.153194 65.481363l222.223221 32.739659c9.175987 1.311879 17.825994 7.226588 21.573341 14.741749l99.06218 202.090695c16.344247 32.688493 49.172933 52.930513 85.698824 52.930513 36.550451 0 69.364811-20.24202 85.648682-52.825113l99.027388-202.017016c4.538363-8.269337 12.196787-13.553691 21.593807-14.901385l222.087121-32.712029c36.059264-5.816472 65.602114-30.475082 77.302597-64.376193 11.626805-34.867112 2.645247-72.609715-23.37129-98.610902L833.843614 251.950522c-8.981559-8.17417-8.976442-18.893302-8.163937-24.558326l37.60241-220.630956c4.77884-28.625968-2.924609-56.821123-21.097504-77.468373-17.506722-21.954011-44.701085-35.052331-72.851215-35.05233l0.029676-0.024559zM539.706527 37.051103l199.8824-104.897071c10.443863-5.619998 19.865443-8.199753 29.769-8.199753 19.268856 0 37.882795 9.002025 49.783847 24.073278l0.561795 0.665149c12.561084 14.135952 17.635659 32.984229 14.289448 53.099359L796.330232 222.768899c-2.835581 19.839861 3.496637 38.253232 17.316388 50.955532l159.37994 156.419515c17.896602 17.906835 24.122397 43.97863 16.133446 67.946509-8.064676 23.382547-28.646434 40.49325-53.671387 44.535309l-221.827201 32.67826c-19.850094 2.825348-36.270065 15.258519-44.610011 32.358988l0.727571-1.387603-99.121532 202.201212c-11.17041 22.329565-33.800827 36.275181-59.000765 36.275181-25.199938 0-47.844681-13.944594-59.060117-36.384675l-99.057064-202.085578c-8.095375-16.193821-25.330922-28.311813-43.948954-30.976502l-221.957161-32.703843c-25.28078-4.076852-45.340651-21.097504-53.481052-45.496193-8.039093-24.113187-1.526773-50.099025 16.989953-67.806316l160.638607-155.683758c13.46364-13.458523 19.860327-32.257681 17.256012-50.440809L190.307835 0.701221c-3.331885-20.001543 1.74269-38.84982 14.304798-52.984749 13.424754-15.092743 32.127721-23.7581 51.336202-23.7581 11.515265 0 20.822235 2.430352 30.16809 7.884574l0.506536 0.28448 200.679556 106.731859c6.080485 2.428306 15.933901 5.037736 25.354457 5.037737 9.92914-0.005117 19.520589-2.428306 27.064403-6.842849l-0.01535-0.00307z m0 0M511.420297 859.603045c-30.628578-0.079818-58.284451-16.910135-72.123644-44.594661l-99.121532-202.197118c-5.946432-11.895935-18.833951-20.822235-32.703843-22.800285L85.448626 557.307138c-30.724769-4.953825-55.504128-25.771967-65.420989-55.504128-9.908674-29.734208-1.979074-61.455677 20.822235-83.259263l160.562882-155.61315c9.911744-9.91379 14.870686-23.787776 12.892635-37.667901l-38.658462-222.027769c-3.967358-23.781636 1.979074-47.574528 17.842367-65.410756 15.858176-17.841344 38.654368-28.746718 62.446238-28.746718 13.876032 0 25.76685 2.969635 37.666878 9.906628l199.222367 106.054431c4.6673 1.868557 11.966543 3.681856 18.597567 3.88754V859.603045z m0 0"  horiz-adv-x="1024" />

    
    <glyph glyph-name="banxing6" unicode="&#58998;" d="M513.156129 29.101419l-274.861419-144.516129a33.032258 33.032258 0 0 0-47.962839 34.816l52.488258 306.109936a33.032258 33.032258 0 0 1-9.51329 29.233548L10.933677 471.502452a32.999226 32.999226 0 0 0 18.299871 56.353032l307.299097 44.659613a33.032258 33.032258 0 0 1 24.87329 18.068645L498.853161 869.07871a33.032258 33.032258 0 0 0 59.226839 0l137.447226-278.494968a33.032258 33.032258 0 0 1 24.87329-18.068645l307.299097-44.659613a33.032258 33.032258 0 0 0 18.332903-56.32l-222.373161-216.757678a33.032258 33.032258 0 0 1-9.480258-29.233548l52.52129-306.109935a33.032258 33.032258 0 0 0-47.929806-34.782968l-274.894452 144.516129a33.395613 33.395613 0 0 1-30.72-0.066065zM510.843871 27.879226l-272.582194-143.293936a33.032258 33.032258 0 0 0-47.962838 34.816l52.488258 306.109936a33.032258 33.032258 0 0 1-9.513291 29.233548L10.900645 471.502452a32.999226 32.999226 0 0 0 18.299871 56.353032l307.299097 44.659613a33.032258 33.032258 0 0 1 24.87329 18.068645L497.102452 865.610323a16.582194 16.582194 0 1 0 31.413677-7.366194v-801.131355a33.032258 33.032258 0 0 0-17.672258-29.233548z"  horiz-adv-x="1057" />

    
    <glyph glyph-name="banxing7" unicode="&#58989;" d="M470.016 785.408c-49.152-87.552-126.464-229.888-126.464-229.888s-141.824-27.648-232.96-45.056C65.536 503.296 51.2 463.36 73.728 435.2c64.512-77.312 177.664-204.8 177.664-204.8s-18.432-140.288-29.184-235.52c-4.608-48.64 31.232-69.632 71.168-50.688 76.8 37.888 193.024 96.256 219.648 109.056 0.512-0.512 1.536-0.512 2.048-1.024V831.488c-6.144 1.536-22.528-1.536-45.056-46.08zM801.28-6.144c-10.24 95.744-28.672 236.032-28.672 236.032s112.64 127.488 176.128 205.312c22.528 28.16 8.192 68.096-36.352 75.264-90.112 17.408-230.4 45.056-230.4 45.056s-76.8 142.848-124.928 230.4c-17.408 32.256-30.208 42.496-38.4 45.568-0.512 0-1.536 0.512-3.072 1.024v-779.776c29.696-15.36 141.312-72.192 215.04-109.056 39.936-19.968 75.264 1.024 70.656 50.176z"  horiz-adv-x="1024" />

    
    <glyph glyph-name="zu" unicode="&#58999;" d="M523.153706 883.45984c6.696616 16.720213 16.720213 16.720213 20.047194 0l117.04149-331.03462a46.918964 46.918964 0 0 1 40.137041-30.113445l351.081815-10.023597c16.720213 0 20.047194-10.023597 6.696615-20.047193l-277.504347-213.993132a55.193764 55.193764 0 0 1-16.720213-50.160638l100.321277-337.688583c3.326981-16.720213-3.326981-23.416829-16.720213-13.393232l-287.570598 197.272919a45.554049 45.554049 0 0 1-50.160639 0L222.23253-122.99459999999999c-13.393232-10.023597-23.416829-3.326981-16.720213 13.393232l100.321277 337.688583a55.193764 55.193764 0 0 1-16.720213 50.160638L11.609034 492.240985c-13.393232 10.023597-10.023597 20.047194 6.696615 20.047193l351.081815 10.023597a43.208101 43.208101 0 0 1 40.137041 30.113445zM523.19636 883.45984L406.154871 552.4252200000001a46.918964 46.918964 0 0 0-40.137042-30.113445L14.936015 512.288178c-16.720213 0-20.047194-10.023597-6.696616-20.047193l277.504348-213.993132a55.193764 55.193764 0 0 0 16.720212-50.160638l-100.321276-337.688583c-3.326981-16.720213 3.326981-23.416829 16.720212-13.393232l287.570599 197.272919a62.999373 62.999373 0 0 0 26.743809 6.696616V890.113803c-3.284328 3.369635-6.526001 0-9.980943-6.653963z"  horiz-adv-x="1066" />

    
    <glyph glyph-name="shuangsechangyongtubiao-" unicode="&#58881;" d="M721 48H545v96h-64v-96H305c-17.6 0-32-14.4-32-32s14.4-32 32-32h416c17.6 0 32 14.4 32 32s-14.4 32-32 32zM817 784H209c-52.8 0-96-43.2-96-96v-448c0-52.8 43.2-96 96-96h608c52.8 0 96 43.2 96 96V688c0 52.8-43.2 96-96 96z m-608-64h608c17.3 0 32-14.7 32-32v-352H177V688c0 17.3 14.7 32 32 32z m608-512H209c-17.3 0-32 14.7-32 32v32h672v-32c0-17.3-14.7-32-32-32z"  horiz-adv-x="1024" />

    
    <glyph glyph-name="xing" unicode="&#58885;" d="M512.63268 24.38499999999999a97.773 97.773 0 0 1-46.207-9.304l-246.64-134.126c-23.508-12.752-38.82-0.973-34.16 26.323l48.754 286.79a110.26 110.26 0 0 1-25.605 84.654L10.99168 483.572c-18.847 19.462-12.855 38.36 13.365 42.149l275.32 40.048a102.421 102.421 0 0 1 68.624 51.417L492.90068 877.448C498.27268 888.652 505.06568 894.77 511.97668 895.832M511.38268 24.38499999999999a97.773 97.773 0 0 0 46.207-9.304l246.64-134.126c23.507-12.752 38.818-0.973 34.158 26.323l-48.753 286.79a110.26 110.26 0 0 0 25.605 84.654l197.783 204.85c18.846 19.462 12.855 38.36-13.366 42.149l-275.32 40.048a102.421 102.421 0 0 0-68.623 51.417L531.11268 877.448C525.74268 888.652 518.94968 894.77 512.03868 895.832"  horiz-adv-x="1025" />

    
    <glyph glyph-name="xing-copy" unicode="&#58886;" d="M512.63268 24.38499999999999a97.773 97.773 0 0 1-46.207-9.304l-246.64-134.126c-23.508-12.752-38.82-0.973-34.16 26.323l48.754 286.79a110.26 110.26 0 0 1-25.605 84.654L10.99168 483.572c-18.847 19.462-12.855 38.36 13.365 42.149l275.32 40.048a102.421 102.421 0 0 1 68.624 51.417L492.90068 877.448C498.27268 888.652 505.06568 894.77 511.97668 895.832M511.38268 24.38499999999999a97.773 97.773 0 0 0 46.207-9.304l246.64-134.126c23.507-12.752 38.818-0.973 34.158 26.323l-48.753 286.79a110.26 110.26 0 0 0 25.605 84.654l197.783 204.85c18.846 19.462 12.855 38.36-13.366 42.149l-275.32 40.048a102.421 102.421 0 0 0-68.623 51.417L531.11268 877.448C525.74268 888.652 518.94968 894.77 512.03868 895.832"  horiz-adv-x="1025" />

    
    <glyph glyph-name="banxing8" unicode="&#58917;" d="M478.208 716.8c-40.96-72.704-104.448-190.464-104.448-190.464s-116.736-22.528-191.488-36.864c-36.864-6.144-49.152-38.912-29.696-62.464 53.248-63.488 146.432-169.984 146.432-169.984s-15.36-115.712-23.552-195.584c-4.096-39.936 25.6-57.344 58.368-41.984L512 108.544V754.688c-7.168-1.024-18.432-8.192-33.792-37.888zM693.248 18.432c32.768-15.36 61.44 2.048 58.368 41.984-9.216 79.872-24.576 195.584-24.576 195.584s92.16 105.472 144.384 169.984c18.432 23.552 6.144 56.32-29.696 62.464-74.752 14.336-189.44 36.864-189.44 36.864s-63.488 117.76-102.4 190.464c-14.336 26.624-24.576 35.84-31.744 37.888-1.024 0-3.072 1.024-6.144 1.024v-646.144c1.024 0 1.024 1.024 2.048 1.024 21.504-10.24 116.736-59.392 179.2-91.136z"  horiz-adv-x="1024" />

    
    <glyph glyph-name="cheliangxinxi" unicode="&#58902;" d="M697.448819 787.149606c50.393701-10.07874 100.787402-18.141732 149.165354-32.251968 36.283465-8.062992 64.503937-36.283465 74.582677-70.551181 20.15748-58.456693 42.330709-116.913386 64.503937-173.354331 4.031496-10.07874 16.125984-24.188976 24.188977-22.173228 40.314961 6.047244 78.614173-20.15748 86.677165-60.472441 2.015748-10.07874 2.015748-22.173228 0-32.251969l-56.440945-16.125984c4.031496-20.15748 6.047244-40.314961 8.062992-60.472441v-282.204724c0-16.125984-6.047244-34.267717-18.141732-46.362205-54.425197-10.07874-108.850394-12.094488-163.27559-4.031496-38.299213 24.188976-14.110236 64.503937-26.204725 96.755905H344.692913c-10.07874-34.267717-16.125984-92.724409-26.204724-96.755905-54.425197-10.07874-110.866142-10.07874-167.307087 0-12.094488 16.125984-18.141732 34.267717-18.141732 54.425197-4.031496 40.314961-4.031496 78.614173-4.031496 118.929134 0 74.582677 0 147.149606 4.031496 221.732283l-54.425197 14.110236c-2.015748 8.062992-2.015748 16.125984 0 24.188977 16.125984 40.314961 36.283465 72.566929 88.692914 68.535433 6.047244 0 18.141732 12.094488 22.173228 22.173228 20.15748 46.362205 36.283465 92.724409 50.393701 139.086614 18.141732 64.503937 70.551181 110.866142 135.055118 122.96063 6.047244 0 62.488189 14.110236 110.866142 16.125984 72.566929 6.047244 167.307087 4.031496 211.653543-2.015748zM253.984252 472.692913c219.716535-46.362205 445.480315-46.362205 665.19685 0-18.141732 56.440945-38.299213 106.834646-50.3937 157.228347-8.062992 40.314961-44.346457 68.535433-84.661418 68.535433-4.031496 0-112.88189 10.07874-163.27559 12.094488s-102.80315-4.031496-153.196851-2.015748c-34.267717-2.015748-68.535433-6.047244-100.787401-16.125984-16.125984-4.031496-28.220472-12.094488-36.283465-26.204725-30.23622-62.488189-50.393701-124.976378-76.598425-193.511811z m44.346457-239.874015c18.141732 0 36.283465 0 54.425197 4.031496 14.110236 4.031496 26.204724 12.094488 32.251968 24.188976 2.015748 8.062992-10.07874 26.204724-20.15748 30.236221-42.330709 20.15748-84.661417 36.283465-126.992126 50.3937-22.173228 8.062992-46.362205 6.047244-50.393701-24.188976-10.07874-44.346457 0-68.535433 32.251968-76.598425 26.204724-6.047244 50.393701-6.047244 78.614174-8.062992z m586.582677 0c26.204724 2.015748 54.425197 6.047244 80.629921 10.07874 38.299213 8.062992 30.23622 40.314961 28.220473 66.519685s-16.125984 40.314961-36.283465 34.267716c-52.409449-16.125984-102.80315-34.267717-153.19685-58.456693-22.173228-10.07874-14.110236-40.314961 12.094488-46.362204 22.173228-4.031496 44.346457-6.047244 68.535433-6.047244z"  horiz-adv-x="1148" />

    
    <glyph glyph-name="zhanchanghuofuzeren" unicode="&#59046;" d="M369.254 274.125s33.895-93.184 63.59-156.877c29.697-63.59 29.697-42.394 29.697-42.394s25.497 84.788 25.497 101.786c0 16.896-33.894 33.894-21.299 63.59 12.698 29.696 50.79 42.394 80.487 21.3 29.696-16.896 25.497-29.696 12.697-59.392-12.697-29.696-16.896-46.592-16.896-46.592l29.696-84.788 88.986 194.97c25.497 59.392 262.86-173.875 250.163-296.755-21.094-131.482-801.28-106.087-801.28-38.195 0 169.574 84.787 284.057 258.662 343.347z m0 0M530.33 893.235c12.697 0 21.299-4.198 33.894-4.198v-59.392c0-8.5 4.198-12.698 12.698-12.698h25.497c8.5 0 12.698 4.199 12.698 12.698V867.738c80.589-38.196 135.68-118.682 139.98-212.07h42.394v-42.394H216.576v42.393h33.894c4.199 93.184 59.392 173.875 135.68 212.07v-38.195c0-8.499 4.199-12.697 12.698-12.697h25.498c8.499 0 12.697 4.198 12.697 12.697V884.736c12.698 4.198 25.498 8.5 38.195 8.5v-156.878c0-8.499 4.199-12.697 12.698-12.697h25.498c8.499 0 12.697 4.198 12.697 12.697V893.235h4.199z m0 0M275.866 643.072s-21.3-233.165 80.588-301.056c101.786-67.891 190.772-80.486 284.16-12.698 93.184 63.59 101.786 114.484 97.588 212.07-4.199 93.185 0 105.985 0 105.985l-462.336-4.301z m25.497-21.197h411.239v-93.184c4.198-80.486-4.199-127.18-88.986-186.573-84.787-55.09-161.075-46.592-254.362 12.698-84.787 59.29-67.89 267.06-67.89 267.06z m0 0M275.866 604.877c-42.394 4.198-55.092-46.592-38.196-76.288 16.896-25.498 55.092-42.394 55.092-42.394l-4.199 33.895s-29.696-16.896-38.195 21.299c-8.294 42.393 38.298 50.79 25.498 63.488z m466.432 0c42.393 4.198 55.09-46.592 38.195-76.288-16.896-25.498-50.79-42.394-50.79-42.394l4.198 29.696s29.696-16.896 38.195 21.3c4.198 46.591-42.394 54.988-29.798 67.686z m0 0"  horiz-adv-x="1024" />

    
    <glyph glyph-name="banzuguanli" unicode="&#58896;" d="M311.830261 258.893913c30.630957 5.832348 59.12487 11.575652 81.608348 18.743652 9.48313 3.205565 15.671652 5.87687 20.346434 8.459131a304.083478 304.083478 0 0 0-58.457043 88.197565 319.577043 319.577043 0 0 0-29.161739 130.359652c-0.667826 57.700174 3.33913 101.10887 10.818782 138.774261 11.53113 53.248 32.634435 94.118957 63.799653 125.106087 10.863304 10.373565 22.483478 19.456 34.682434 26.579478C417.792 854.77287 379.013565 894.976 296.870957 894.976c-135.92487 0-155.603478-103.15687-154.267827-227.016348 0.667826-62.953739 30.630957-129.113043 74.796522-166.600348a18.16487 18.16487 0 0 0 6.811826-14.959304c0-15.582609-1.335652-34.994087-6.811826-42.117565-30.630957-39.624348-107.430957-46.747826-176.751304-61.707131-13.623652-2.537739-39.446261-25.911652-39.446261-52.446608v-192.556522c0-22.706087 19.010783-35.617391 33.970087-35.617391h30.630956c8.859826 24.041739 19.678609 44.076522 32.011131 60.282434 48.261565 64.823652 136.548174 81.697391 214.016 96.612174zM1072.973913 382.21913c-69.320348 14.914783-146.120348 22.082783-176.751304 61.662609-5.476174 7.123478-6.811826 27.158261-6.811826 42.117565 0 5.87687 2.671304 11.620174 6.811826 14.959305 44.165565 37.665391 74.128696 103.15687 74.796521 166.600348 1.335652 123.859478-17.67513 227.06087-154.267826 227.060869-82.276174 0-120.921043-39.624348-138.596174-99.862261 12.198957-7.791304 24.486957-16.205913 34.682435-26.579478 31.966609-30.497391 52.98087-71.368348 63.799652-125.106087 8.147478-36.908522 11.486609-81.074087 10.818783-138.818783a337.16313 337.16313 0 0 0-29.161739-129.691826 304.083478 304.083478 0 0 0-58.457044-88.242087c4.808348-2.537739 10.863304-5.209043 20.346435-8.45913 22.483478-7.746783 50.977391-13.000348 81.608348-18.699131 77.467826-14.959304 165.086609-31.833043 213.348174-97.324521 12.198957-16.873739 23.151304-36.240696 32.01113-60.282435h30.630957a35.305739 35.305739 0 0 1 33.970087 35.617391v192.333913c0.667826 26.668522-25.154783 49.41913-38.778435 52.713739zM643.472696 255.020522c-6.144 8.45913-7.479652 31.165217-6.811826 48.038956a22.26087 22.26087 0 0 0 8.147478 16.205913c48.973913 42.117565 82.276174 116.068174 82.276174 188.727652 0 138.150957-22.483478 252.883478-168.559305 252.883479-151.552 0-172.566261-115.400348-171.230608-254.174609 0.667826-71.368348 33.970087-144.695652 82.944-186.813217a23.596522 23.596522 0 0 0 8.147478-16.829218c0-16.873739-1.335652-39.624348-7.479652-47.37113-57.121391-75.241739-262.366609-45.990957-324.118261-130.359652-40.826435-55.785739-52.357565-176.484174-55.830261-228.307479a23.329391 23.329391 0 0 1 23.81913-24.041739h884.023653c13.623652 0 24.486957 11.041391 23.81913 24.041739-2.671304 51.823304-14.336 173.768348-57.121391 228.307479-65.179826 81.563826-263.568696 54.361043-322.025739 129.691826z"  horiz-adv-x="1113" />

    


  </font>
</defs>
</svg>
